<mxfile host="app.diagrams.net" modified="2024-03-26T07:41:04.802Z" agent="Mozilla/5.0 (Windows NT 10.0; Win64; x64) AppleWebKit/537.36 (KHTML, like Gecko) Chrome/123.0.0.0 Safari/537.36" version="24.1.0" etag="ZLgdM7j5Q52I5YugueNt" type="github">
  <diagram name="Page-1" id="WVabMJ5weCoxrAuRAqK-">
    <mxGraphModel>
      <root>
        <mxCell id="0" />
        <mxCell id="1" parent="0" />
      </root>
    </mxGraphModel>
  </diagram>
</mxfile>
